Coordinates
version=1
nRows=64
nColumns=11
inDegrees=yes

Units are S.I. units (second, meters, Newtons, ...)
If the header above contains a line with 'inDegrees', this indicates whether rotational values are in degrees (yes) or radians (no).

endheader
time	pelvis_tilt	pelvis_tx	pelvis_ty	hip_flexion_l	hip_flexion_r	knee_angle_l	knee_angle_r	ankle_angle_l	ankle_angle_r	lumbar
     44.77000000	    -11.32096231	      0.28612371	      0.97519603	     25.17354525	     25.17354525	    -19.41938833	    -19.41938833	      4.52159013	      4.52159013	    -10.77656613
     44.78000000	    -11.09789029	      0.28840774	      0.97610444	     24.59276048	     24.59276048	    -19.05793434	    -19.05793434	      4.39856932	      4.39856932	    -10.53999733
     44.79000000	    -10.89188181	      0.29063445	      0.97694044	     24.03804999	     24.03804999	    -18.70832645	    -18.70832645	      4.31455558	      4.31455558	    -10.29884356
     44.80000000	    -10.85214719	      0.29272954	      0.97739727	     23.70280595	     23.70280595	    -18.42728864	    -18.42728864	      4.32310183	      4.32310183	     -9.86303463
     44.81000000	    -10.51199339	      0.29495206	      0.97845347	     22.98914047	     22.98914047	    -18.05743992	    -18.05743992	      4.23639176	      4.23639176	     -9.82138943
     44.82000000	    -10.33699535	      0.29704110	      0.97913680	     22.49246951	     22.49246951	    -17.74895766	    -17.74895766	      4.21886795	      4.21886795	     -9.58561928
     44.83000000	    -10.17192344	      0.29908542	      0.97977556	     22.01237952	     22.01237952	    -17.44814993	    -17.44814993	      4.21080137	      4.21080137	     -9.35216490
     44.84000000	    -10.01454970	      0.30106736	      0.98036993	     21.54558503	     21.54558503	    -17.14901993	    -17.14901993	      4.20976016	      4.20976016	     -9.12243286
     44.85000000	     -9.87219849	      0.30298445	      0.98092042	     21.10572002	     21.10572002	    -16.86098673	    -16.86098673	      4.20603519	      4.20603519	     -8.88971708
     44.86000000	     -9.73779668	      0.30485472	      0.98143878	     20.67705232	     20.67705232	    -16.57439662	    -16.57439662	      4.20243091	      4.20243091	     -8.66030984
     44.87000000	     -9.71772764	      0.30663779	      0.98171914	     20.39383699	     20.39383699	    -16.32152159	    -16.32152159	      4.22815839	      4.22815839	     -8.28986165
     44.88000000	     -9.48648788	      0.30844582	      0.98239589	     19.84903833	     19.84903833	    -16.00449680	    -16.00449680	      4.20428675	      4.20428675	     -8.21572178
     44.89000000	     -9.36004070	      0.31017412	      0.98285992	     19.43635260	     19.43635260	    -15.71599164	    -15.71599164	      4.20011179	      4.20011179	     -8.00930082
     44.90000000	     -9.33701260	      0.31182323	      0.98310984	     19.15610023	     19.15610023	    -15.45865824	    -15.45865824	      4.22705172	      4.22705172	     -7.67598825
     44.91000000	     -9.10361468	      0.31353486	      0.98377081	     18.61278925	     18.61278925	    -15.13942077	    -15.13942077	      4.21030908	      4.21030908	     -7.62691014
     44.92000000	     -8.96668439	      0.31517937	      0.98424320	     18.19053316	     18.19053316	    -14.84514061	    -14.84514061	      4.20487387	      4.20487387	     -7.45851905
     44.93000000	     -8.84298025	      0.31678933	      0.98466642	     17.78002171	     17.78002171	    -14.53987209	    -14.53987209	      4.21803905	      4.21803905	     -7.28092003
     44.94000000	     -8.68976969	      0.31838863	      0.98514302	     17.33602293	     17.33602293	    -14.23431639	    -14.23431639	      4.20576525	      4.20576525	     -7.14119038
     44.95000000	     -8.54251027	      0.31996051	      0.98560116	     16.89452283	     16.89452283	    -13.91624112	    -13.91624112	      4.19878432	      4.19878432	     -7.00306925
     44.96000000	     -8.39084751	      0.32151353	      0.98605790	     16.44425209	     16.44425209	    -13.58783510	    -13.58783510	      4.17950260	      4.17950260	     -6.87528228
     44.97000000	     -8.25923636	      0.32302585	      0.98646758	     16.01267137	     16.01267137	    -13.24803407	    -13.24803407	      4.16164062	      4.16164062	     -6.73425215
     44.98000000	     -8.07880997	      0.32454845	      0.98695268	     15.52528005	     15.52528005	    -12.90508295	    -12.90508295	      4.11508173	      4.11508173	     -6.64614962
     44.99000000	     -7.92475646	      0.32602164	      0.98737522	     15.06660322	     15.06660322	    -12.55321807	    -12.55321807	      4.06803704	      4.06803704	     -6.53559563
     45.00000000	     -7.77475420	      0.32746610	      0.98778221	     14.61365638	     14.61365638	    -12.20381022	    -12.20381022	      4.01575753	      4.01575753	     -6.42810930
     45.01000000	     -7.62150269	      0.32888088	      0.98817389	     14.15717461	     14.15717461	    -11.84880696	    -11.84880696	      3.96056652	      3.96056652	     -6.32692254
     45.02000000	     -7.48962025	      0.33024899	      0.98851506	     13.72551008	     13.72551008	    -11.49281711	    -11.49281711	      3.90361987	      3.90361987	     -6.20619787
     45.03000000	     -7.35754773	      0.33160098	      0.98884379	     13.29487823	     13.29487823	    -11.13488991	    -11.13488991	      3.84618918	      3.84618918	     -6.08698651
     45.04000000	     -7.35022126	      0.33291071	      0.98892721	     13.01981255	     13.01981255	    -10.81752716	    -10.81752716	      3.84812851	      3.84812851	     -5.80845743
     45.05000000	     -7.10360607	      0.33426543	      0.98945314	     12.43736617	     12.43736617	    -10.40220367	    -10.40220367	      3.72284561	      3.72284561	     -5.84462780
     45.06000000	     -7.10886345	      0.33552343	      0.98950273	     12.17570528	     12.17570528	    -10.07827006	    -10.07827006	      3.72590726	      3.72590726	     -5.56609384
     45.07000000	     -7.01794447	      0.33681285	      0.98970917	     11.78044401	     11.78044401	     -9.69340186	     -9.69340186	      3.67599387	      3.67599387	     -5.40181181
     45.08000000	     -6.75177761	      0.33818685	      0.99024713	     11.15730734	     11.15730734	     -9.24507166	     -9.24507166	      3.51948420	      3.51948420	     -5.45895504
     45.09000000	     -6.77887173	      0.33940232	      0.99020961	     10.91911195	     10.91911195	     -8.91262064	     -8.91262064	      3.52842504	      3.52842504	     -5.15331264
     45.10000000	     -6.68899132	      0.34064277	      0.99042338	     10.51187387	     10.51187387	     -8.49305216	     -8.49305216	      3.46020286	      3.46020286	     -5.01242678
     45.11000000	     -6.43451347	      0.34191807	      0.99088908	      9.91947350	      9.91947350	     -8.07201161	     -8.07201161	      3.29114951	      3.29114951	     -5.06793211
     45.12000000	     -6.46300257	      0.34300817	      0.99083258	      9.70096291	      9.70096291	     -7.75257922	     -7.75257922	      3.29810111	      3.29810111	     -4.79058159
     45.13000000	     -6.23635990	      0.34415544	      0.99125635	      9.15296485	      9.15296485	     -7.33395351	     -7.33395351	      3.14107845	      3.14107845	     -4.85251786
     45.14000000	     -6.26766882	      0.34513226	      0.99115655	      8.96060549	      8.96060549	     -7.04994324	     -7.04994324	      3.15182302	      3.15182302	     -4.59610626
     45.15000000	     -6.03986138	      0.34618116	      0.99154059	      8.44184407	      8.44184407	     -6.66972806	     -6.66972806	      3.00676993	      3.00676993	     -4.67294878
     45.16000000	     -6.05959704	      0.34703149	      0.99145304	      8.27072830	      8.27072830	     -6.42942374	     -6.42942374	      3.01613531	      3.01613531	     -4.46992116
     45.17000000	     -5.85642917	      0.34795722	      0.99177225	      7.81927268	      7.81927268	     -6.11518728	     -6.11518728	      2.90573066	      2.90573066	     -4.54728109
     45.18000000	     -5.85035060	      0.34854756	      0.99170335	      7.75194720	      7.75194720	     -6.10148168	     -6.10148168	      2.90821698	      2.90821698	     -4.42170140
     45.19000000	     -5.87687243	      0.34935664	      0.99158775	      7.56201170	      7.56201170	     -5.77740720	     -5.77740720	      2.93257803	      2.93257803	     -4.23613084
     45.20000000	     -5.57462506	      0.35015720	      0.99206952	      7.04895445	      7.04895445	     -5.52619626	     -5.52619626	      2.81950153	      2.81950153	     -4.47573796
     45.21000000	     -5.56499185	      0.35063863	      0.99200967	      7.00494978	      7.00494978	     -5.53680583	     -5.53680583	      2.81924568	      2.81924568	     -4.39415078
     45.22000000	     -5.55442484	      0.35117622	      0.99195729	      6.94579391	      6.94579391	     -5.51441467	     -5.51441467	      2.82416684	      2.82416684	     -4.29950576
     45.23000000	     -5.54418194	      0.35166963	      0.99191108	      6.88901083	      6.88901083	     -5.49247908	     -5.49247908	      2.82943512	      2.82943512	     -4.22542004
     45.24000000	     -5.52614062	      0.35211646	      0.99189551	      6.83696912	      6.83696912	     -5.47581760	     -5.47581760	      2.83472228	      2.83472228	     -4.16947563
     45.25000000	     -5.50506572	      0.35252787	      0.99189128	      6.79366699	      6.79366699	     -5.47610327	     -5.47610327	      2.83810252	      2.83810252	     -4.12460720
     45.26000000	     -5.47218052	      0.35297428	      0.99190808	      6.73829748	      6.73829748	     -5.48366678	     -5.48366678	      2.84397662	      2.84397662	     -4.08757122
     45.27000000	     -5.44216988	      0.35336898	      0.99192696	      6.69746104	      6.69746104	     -5.50408220	     -5.50408220	      2.84733880	      2.84733880	     -4.05659823
     45.28000000	     -5.40014408	      0.35376893	      0.99196038	      6.65057165	      6.65057165	     -5.53987929	     -5.53987929	      2.85278248	      2.85278248	     -4.03624128
     45.29000000	     -5.02603433	      0.35418756	      0.99257254	      6.23069087	      6.23069087	     -5.57002546	     -5.57002546	      3.04531451	      3.04531451	     -4.45849088
     45.30000000	     -5.00685850	      0.35454578	      0.99257270	      6.21033226	      6.21033226	     -5.60117460	     -5.60117460	      3.04199306	      3.04199306	     -4.42176182
     45.31000000	     -4.98133988	      0.35488392	      0.99258420	      6.19178136	      6.19178136	     -5.65065577	     -5.65065577	      3.03928872	      3.03928872	     -4.39726645
     45.32000000	     -4.90912678	      0.35500165	      0.99266285	      6.19812521	      6.19812521	     -5.82304571	     -5.82304571	      3.06305822	      3.06305822	     -4.47994334
     45.33000000	     -4.89352355	      0.35529418	      0.99264790	      6.18389692	      6.18389692	     -5.85266382	     -5.85266382	      3.06719449	      3.06719449	     -4.45382264
     45.34000000	     -4.89085949	      0.35544686	      0.99262844	      6.18486020	      6.18486020	     -5.85308504	     -5.85308504	      3.06728335	      3.06728335	     -4.45384428
     45.35000000	     -4.85685007	      0.35581777	      0.99262626	      6.16213651	      6.16213651	     -5.93035530	     -5.93035530	      3.07293680	      3.07293680	     -4.42257010
     45.36000000	     -4.79352992	      0.35579070	      0.99268726	      6.19318816	      6.19318816	     -6.12240645	     -6.12240645	      3.12468068	      3.12468068	     -4.53126413
     45.37000000	     -4.79198536	      0.35591559	      0.99264992	      6.19384684	      6.19384684	     -6.12263054	     -6.12263054	      3.12488927	      3.12488927	     -4.53138858
     45.38000000	     -4.77595462	      0.35618575	      0.99261808	      6.18099285	      6.18099285	     -6.17091941	     -6.17091941	      3.13653137	      3.13653137	     -4.50957193
     45.39000000	     -4.77433922	      0.35628951	      0.99258747	      6.18207157	      6.18207157	     -6.17129366	     -6.17129366	      3.13677106	      3.13677106	     -4.51061368
     45.40000000	     -4.71621221	      0.35618340	      0.99263647	      6.22459375	      6.22459375	     -6.37110212	     -6.37110212	      3.19209043	      3.19209043	     -4.62682901
